<svg width="30" height="30" fill="none" xmlns="http://www.w3.org/2000/svg"><path d="M27.629 6.271l-6.13-6.02A.88.88 0 0020.885 0H5.389a3.283 3.283 0 00-3.28 3.28v23.44A3.283 3.283 0 005.39 30h19.223a3.283 3.283 0 003.28-3.28V6.9a.88.88 0 00-.263-.628zm-5.866-3.297l3.1 3.046h-2.82a.28.28 0 01-.28-.28V2.974zm2.85 25.268H5.388a1.523 1.523 0 01-1.522-1.521V3.279c0-.839.683-1.521 1.522-1.521h14.616V5.74a2.04 2.04 0 002.038 2.037h4.091v18.944c0 .839-.683 1.521-1.522 1.521z" fill="#F08D0B"/><path d="M21.102 13.945H8.712a.879.879 0 100 1.758h12.39a.879.879 0 100-1.758zm-12.39 5.274h10.103a.879.879 0 000-1.758H8.712a.879.879 0 100 1.758zm11.322 1.758H8.712a.879.879 0 100 1.757h11.322a.879.879 0 000-1.757z" fill="#F08D0B"/></svg>