<svg width="30" height="28" fill="none" xmlns="http://www.w3.org/2000/svg"><path d="M24.137 5.325a.933.933 0 01-.617-.232A12.924 12.924 0 0015 1.875c-2.948 0-5.83 1.034-8.118 2.912a.938.938 0 01-1.19-1.45A14.707 14.707 0 0115 0a14.8 14.8 0 019.756 3.683.939.939 0 01-.619 1.642z" fill="#F08D0B"/><path d="M9.062 5H5.938A.938.938 0 015 4.062V.938a.938.938 0 011.875 0v2.188h2.187a.938.938 0 010 1.875zm6.088 22.5a14.794 14.794 0 01-9.756-3.683.938.938 0 111.237-1.41 12.916 12.916 0 008.519 3.218c2.947 0 5.83-1.034 8.117-2.913a.938.938 0 011.19 1.45A14.707 14.707 0 0115.15 27.5z" fill="#F08D0B"/><path d="M24.063 27.5a.938.938 0 01-.938-.938v-2.187h-2.188a.938.938 0 010-1.875h3.125c.518 0 .938.42.938.938v3.125c0 .517-.42.937-.938.937zM6.25 13.75a3.13 3.13 0 01-3.125-3.125A3.13 3.13 0 016.25 7.5a3.13 3.13 0 013.125 3.125A3.13 3.13 0 016.25 13.75zm0-4.375c-.689 0-1.25.561-1.25 1.25s.561 1.25 1.25 1.25 1.25-.561 1.25-1.25-.561-1.25-1.25-1.25zM11.563 20a.938.938 0 01-.938-.938v-.625c0-.86-.701-1.562-1.563-1.562H3.439c-.862 0-1.563.701-1.563 1.563v.625a.938.938 0 01-1.875 0v-.625A3.44 3.44 0 013.438 15h5.624a3.44 3.44 0 013.438 3.438v.625c0 .517-.42.937-.938.937zm12.187-6.25a3.13 3.13 0 01-3.125-3.125A3.13 3.13 0 0123.75 7.5a3.13 3.13 0 013.125 3.125 3.13 3.13 0 01-3.125 3.125zm0-4.375c-.689 0-1.25.561-1.25 1.25s.561 1.25 1.25 1.25 1.25-.561 1.25-1.25-.561-1.25-1.25-1.25zM29.063 20a.938.938 0 01-.938-.938v-.625c0-.86-.701-1.562-1.563-1.562h-5.625c-.86 0-1.562.701-1.562 1.563v.625a.938.938 0 01-1.875 0v-.625A3.44 3.44 0 0120.938 15h5.625A3.44 3.44 0 0130 18.438v.625c0 .517-.42.937-.938.937z" fill="#F08D0B"/></svg>