<svg width="27" height="30" fill="none" xmlns="http://www.w3.org/2000/svg"><path d="M13.184 0C5.914 0 0 5.914 0 13.184v7.148a2.64 2.64 0 002.637 2.637h1.03a2.641 2.641 0 002.485 1.758A2.64 2.64 0 008.79 22.09v-7.15a2.64 2.64 0 00-2.637-2.636 2.641 2.641 0 00-2.485 1.758h-1.03c-.308 0-.604.053-.88.15v-1.03c0-6.3 5.126-11.425 11.427-11.425 6.3 0 11.425 5.125 11.425 11.426v1.03a2.623 2.623 0 00-.879-.152H22.7a2.641 2.641 0 00-2.485-1.757 2.64 2.64 0 00-2.637 2.636v7.149a2.64 2.64 0 003.402 2.523 2.641 2.641 0 01-2.523 1.871h-2.788a2.64 2.64 0 00-2.485-1.757 2.64 2.64 0 00-2.637 2.636A2.64 2.64 0 0013.184 30a2.64 2.64 0 002.485-1.758h2.788a4.4 4.4 0 004.395-4.394v-.88h.878a2.64 2.64 0 002.637-2.636v-7.148C26.367 5.914 20.453 0 13.184 0zm-7.91 14.941a.88.88 0 011.757 0v7.149a.88.88 0 01-1.758 0v-7.15zm-2.637.88h.879v5.39h-.88a.88.88 0 01-.878-.879v-3.633a.88.88 0 01.879-.879zm10.547 12.421a.88.88 0 010-1.758.88.88 0 010 1.758zm7.91-6.152a.88.88 0 01-1.758 0v-7.15a.88.88 0 011.758 0v7.149zm3.515-1.758a.88.88 0 01-.879.879h-.878v-5.39h.878a.88.88 0 01.88.878v3.633z" fill="#F08D0B"/></svg>