<svg width="20" height="24" fill="none" xmlns="http://www.w3.org/2000/svg"><path d="M9.667 11.333c-1.557 0-2.905-.558-4.007-1.66C4.56 8.572 4 7.223 4 5.666c0-1.556.56-2.904 1.66-4.006C6.762.558 8.11 0 9.667 0c1.557 0 2.905.558 4.006 1.66 1.102 1.102 1.66 2.45 1.66 4.006 0 1.558-.558 2.906-1.66 4.007-1.102 1.102-2.45 1.66-4.006 1.66zm3.031-8.698c-.845-.845-1.836-1.256-3.031-1.256s-2.186.41-3.032 1.256C5.79 3.48 5.38 4.472 5.38 5.666c0 1.195.41 2.187 1.256 3.032.846.846 1.837 1.257 3.032 1.257 1.194 0 2.186-.411 3.031-1.257.846-.845 1.257-1.837 1.257-3.032 0-1.194-.411-2.186-1.257-3.031z" fill="#F08D0B"/><path d="M.048 18.339c.033-.478.098-.998.195-1.548.097-.555.222-1.078.372-1.557a7.8 7.8 0 01.626-1.452c.27-.486.588-.91.944-1.257a4.15 4.15 0 011.357-.871 4.596 4.596 0 011.73-.32c.245 0 .482.102.94.406.28.188.61.405.977.644.314.205.74.396 1.265.57.512.17 1.033.255 1.547.255.513 0 1.034-.085 1.547-.255.525-.173.95-.365 1.264-.57.364-.237.693-.454.978-.644.457-.304.694-.407.938-.407a4.6 4.6 0 011.731.32c.527.214.984.507 1.357.872.356.348.674.771.943 1.257.26.468.471.957.627 1.452.15.479.275 1.002.372 1.557.096.549.162 1.07.194 1.548.032.468.048.955.048 1.447 0 1.28-.398 2.315-1.182 3.078-.775.754-1.8 1.136-3.047 1.136H4.23c-1.247 0-2.272-.382-3.047-1.136C.398 22.101 0 21.065 0 19.786c0-.494.016-.98.048-1.447zm2.103 3.485c.512.498 1.192.74 2.078.74H15.77c.887 0 1.566-.242 2.078-.74.502-.488.746-1.155.746-2.038 0-.459-.015-.912-.044-1.348a13.337 13.337 0 00-.176-1.394 10.973 10.973 0 00-.327-1.372 6.338 6.338 0 00-.51-1.18 4.047 4.047 0 00-.694-.93 2.754 2.754 0 00-.902-.573 3.17 3.17 0 00-1.106-.218c-.05.026-.137.077-.279.172-.289.192-.622.412-.99.652-.414.27-.949.514-1.587.725a6.3 6.3 0 01-1.98.325c-.66 0-1.326-.11-1.979-.325-.639-.21-1.173-.455-1.588-.725-.377-.246-.7-.46-.989-.652a3.79 3.79 0 00-.279-.172 3.172 3.172 0 00-1.106.218 2.758 2.758 0 00-.902.573 4.035 4.035 0 00-.694.93c-.213.382-.384.78-.51 1.18-.131.418-.241.88-.328 1.372-.087.5-.146.968-.175 1.395-.03.434-.045.887-.045 1.347 0 .883.244 1.55.746 2.038z" fill="#F08D0B"/></svg>