<svg width="25" height="25" fill="none" xmlns="http://www.w3.org/2000/svg"><path d="M12.402 7.544c0-.54.438-.977.977-.977h6.787a.977.977 0 110 1.954h-6.787a.977.977 0 01-.977-.977zm.977 4.932h6.787a.977.977 0 100-1.954h-6.787a.977.977 0 100 1.954zm6.787 4.004h-4.834a.977.977 0 000 1.953h4.834a.977.977 0 100-1.953zM4.81 13.696h4.052a.902.902 0 00.904-.9v-.087a2.925 2.925 0 00-2.144-2.811 1.757 1.757 0 10-1.57 0 2.97 2.97 0 00-2.146 2.857v.04c0 .498.405.901.904.901zm.073 4.737h6.543a.977.977 0 000-1.953H4.883a.977.977 0 100 1.953zM25 3.638v17.724c0 .54-.437.977-.977.977H.977A.977.977 0 010 21.362V3.638c0-.54.437-.977.977-.977h23.046c.54 0 .977.437.977.977zm-1.953.976H1.953v15.772h21.094V4.614z" fill="#F08D0B"/></svg>