<svg width="25" height="25" fill="none" xmlns="http://www.w3.org/2000/svg"><path d="M19.618.772A2.768 2.768 0 0017.56.003L7.177.495a2.788 2.788 0 00-2.66 2.789v10.43a2.95 2.95 0 002.946 2.945h.317L6.83 25h11.34l-.95-8.34h.317a2.95 2.95 0 002.946-2.946V2.792c0-.77-.307-1.488-.865-2.02zM5.982 3.284c0-.71.555-1.293 1.264-1.326l10.382-.492a1.314 1.314 0 01.979.365c.265.254.411.595.411.961v2.623a2.927 2.927 0 00-1.48-.401H11.28v.732c0 1.507.312 2.718.898 3.587H8.682a2.703 2.703 0 01-2.7-2.7v-3.35zm11.555 11.91H15.58l.949 8.341H8.472l.949-8.34H7.463a1.483 1.483 0 01-1.481-1.482V9.801c.728.62 1.67.997 2.7.997h5.64a4.3 4.3 0 00.27.053v1.069h1.464V9.441h-.732c-.896 0-1.536-.315-1.959-.964-.317-.486-.517-1.168-.59-1.998h4.762c.817 0 1.481.664 1.481 1.481v5.753c0 .817-.664 1.481-1.48 1.481z" fill="#F08D0B"/></svg>