<svg width="25" height="25" fill="none" xmlns="http://www.w3.org/2000/svg"><g clip-path="url(#clip0)"><path d="M24.375 10.825l-.002-.002L14.175.625a2.286 2.286 0 00-1.627-.674 2.29 2.29 0 00-1.628.674L.727 10.818l-.01.01a2.304 2.304 0 00.005 3.25 2.289 2.289 0 001.598.675h.406v7.505A2.697 2.697 0 005.42 24.95h3.99a.732.732 0 00.732-.732v-5.884a1.23 1.23 0 011.23-1.229h2.352a1.23 1.23 0 011.23 1.229v5.884c0 .404.327.732.732.732h3.99a2.697 2.697 0 002.693-2.693v-7.505h.377c.615 0 1.193-.24 1.628-.675a2.305 2.305 0 00.001-3.253zm-1.037 2.218a.831.831 0 01-.592.245h-1.11a.732.732 0 00-.732.733v8.237a1.23 1.23 0 01-1.229 1.228h-3.257v-5.151a2.697 2.697 0 00-2.694-2.694h-2.353a2.697 2.697 0 00-2.694 2.694v5.151H5.42a1.23 1.23 0 01-1.23-1.228V14.02a.732.732 0 00-.732-.733h-1.09a.83.83 0 01-.61-.245.838.838 0 010-1.184L11.957 1.66a.83.83 0 01.592-.245.83.83 0 01.591.245l10.196 10.195.004.005a.838.838 0 01-.001 1.182z" fill="#F08D0B"/></g><defs><clipPath id="clip0"><path fill="#fff" d="M0 0h25v25H0z"/></clipPath></defs></svg>