<svg width="25" height="25" fill="none" xmlns="http://www.w3.org/2000/svg"><path d="M18.164 9.326a6.839 6.839 0 00-5.89 3.37L6.3 10.12a3.18 3.18 0 000-1.1l6.122-2.638a2.68 2.68 0 002.081.991 2.689 2.689 0 002.685-2.686 2.689 2.689 0 00-2.685-2.685 2.689 2.689 0 00-2.662 3.035L5.719 7.676a3.171 3.171 0 00-2.545-1.28A3.177 3.177 0 000 9.57a3.177 3.177 0 003.174 3.174 3.17 3.17 0 002.545-1.28l5.95 2.566a6.808 6.808 0 00-.34 2.132 6.844 6.844 0 006.835 6.836A6.844 6.844 0 0025 16.162a6.844 6.844 0 00-6.836-6.836zm-3.662-5.86a1.222 1.222 0 010 2.442 1.221 1.221 0 010-2.441zM3.174 11.28a1.711 1.711 0 01-1.71-1.709 1.71 1.71 0 011.71-1.709 1.71 1.71 0 011.709 1.71 1.71 1.71 0 01-1.71 1.708zm12.305 9.533v-.011a2.689 2.689 0 012.685-2.686 2.689 2.689 0 012.686 2.686v.011a5.338 5.338 0 01-2.686.721 5.338 5.338 0 01-2.686-.72zm1.464-5.382a1.222 1.222 0 012.441 0 1.221 1.221 0 01-2.44 0zm5.231 4.301a4.166 4.166 0 00-1.979-2.548 2.67 2.67 0 00.655-1.753 2.689 2.689 0 00-2.686-2.686 2.689 2.689 0 00-2.686 2.686c0 .67.248 1.282.655 1.753a4.167 4.167 0 00-1.979 2.548 5.35 5.35 0 01-1.361-3.569 5.377 5.377 0 015.371-5.371 5.377 5.377 0 015.371 5.371 5.35 5.35 0 01-1.361 3.57z" fill="#F08D0B"/></svg>