<svg width="25" height="25" fill="none" xmlns="http://www.w3.org/2000/svg"><path d="M24.515 5.024h-1.647v-.562a.485.485 0 00-.35-.484 13.65 13.65 0 00-3.493-.446c-1.938 0-4.58.436-6.532 2.423-1.939-2.006-4.599-2.423-6.533-2.423a13.65 13.65 0 00-3.493.446.485.485 0 00-.35.484v.557H.486A.485.485 0 000 5.504v15.478a.485.485 0 00.722.422c.048-.025 4.894-2.675 11.66-.97h.115a.492.492 0 00.116 0c6.784-1.72 11.63.926 11.66.97a.485.485 0 00.726-.417V5.509a.485.485 0 00-.485-.485zM.97 20.211V5.994h1.158v12.153a.485.485 0 00.558.485 21.197 21.197 0 013.028-.243 12.571 12.571 0 014.139.625A17.815 17.815 0 00.97 20.211zm4.744-2.786c-.881.002-1.761.059-2.636.17V4.845c.944-.21 1.907-.317 2.874-.32 1.812 0 4.313.417 6.047 2.375l.015 12.07c-1.008-.658-2.975-1.545-6.3-1.545zM12.983 6.9c1.734-1.939 4.235-2.375 6.047-2.375.966.003 1.93.11 2.873.32v12.75a21.32 21.32 0 00-2.621-.175c-3.305 0-5.277.887-6.3 1.546V6.9zm11.042 13.31a17.819 17.819 0 00-8.902-1.197 12.6 12.6 0 014.158-.625c1.02.006 2.039.085 3.048.238a.485.485 0 00.557-.485V5.994h1.158l-.019 14.217z" fill="#F08D0B"/></svg>