<svg width="30" height="30" fill="none" xmlns="http://www.w3.org/2000/svg"><g clip-path="url(#clip0)" fill="#F08D0B"><path d="M29.831 12.626a.497.497 0 00-.392-.121l-2.553.318a.657.657 0 01-.714-.508 11.398 11.398 0 00-1.36-3.292.654.654 0 01.146-.861l1.85-1.438a.503.503 0 00.046-.748l-2.828-2.829a.498.498 0 00-.748.047l-1.439 1.849a.655.655 0 01-.86.146 11.402 11.402 0 00-3.293-1.36.656.656 0 01-.509-.714l.32-2.553A.5.5 0 0017 0h-4a.498.498 0 00-.496.562l.32 2.553a.658.658 0 01-.51.714 11.41 11.41 0 00-3.292 1.36.654.654 0 01-.86-.147L6.724 3.193a.503.503 0 00-.749-.047L3.146 5.975a.5.5 0 00.047.748l1.85 1.438a.655.655 0 01.146.86 11.398 11.398 0 00-1.36 3.292.656.656 0 01-.714.51l-2.553-.32A.496.496 0 000 13v4a.5.5 0 00.562.496l2.553-.319a.657.657 0 01.714.51 11.4 11.4 0 001.36 3.291.654.654 0 01-.147.86l-1.849 1.438a.502.502 0 00-.046.749l2.828 2.828a.498.498 0 00.748-.047l1.438-1.849a.654.654 0 01.86-.146 11.4 11.4 0 003.292 1.36c.332.08.551.386.51.714l-.32 2.553A.5.5 0 0013 30h4a.498.498 0 00.496-.561l-.32-2.553a.658.658 0 01.51-.714 11.41 11.41 0 003.292-1.36.654.654 0 01.86.146l1.438 1.85a.502.502 0 00.749.046l2.829-2.828a.5.5 0 00-.047-.749l-1.849-1.438a.655.655 0 01-.146-.86 11.398 11.398 0 001.359-3.292.66.66 0 01.714-.51l2.553.32A.5.5 0 0030 17v-4a.498.498 0 00-.169-.374zM29 16.433l-1.992-.248a1.658 1.658 0 00-1.811 1.268 10.392 10.392 0 01-1.24 3.004 1.654 1.654 0 00.386 2.171l1.402 1.09-2.027 2.028-1.09-1.401a1.654 1.654 0 00-2.171-.387 10.42 10.42 0 01-3.004 1.24 1.656 1.656 0 00-1.269 1.81l.25 1.992h-2.868l.249-1.992a1.656 1.656 0 00-1.269-1.81 10.4 10.4 0 01-3.003-1.24 1.654 1.654 0 00-2.171.386l-1.09 1.402-2.028-2.028 1.402-1.09a1.654 1.654 0 00.386-2.171 10.404 10.404 0 01-1.24-3.004 1.657 1.657 0 00-1.81-1.269L1 16.434v-2.868l1.991.249a1.658 1.658 0 001.811-1.269 10.402 10.402 0 011.24-3.004 1.655 1.655 0 00-.386-2.17L4.254 6.28 6.28 4.253l1.09 1.402a1.653 1.653 0 002.172.387 10.421 10.421 0 013.004-1.24 1.656 1.656 0 001.268-1.81L13.566 1h2.867l-.248 1.991a1.656 1.656 0 001.269 1.81c1.062.255 2.073.672 3.003 1.24a1.655 1.655 0 002.172-.386l1.09-1.401 2.027 2.027-1.402 1.09a1.654 1.654 0 00-.386 2.172c.568.932.986 1.942 1.24 3.004a1.657 1.657 0 001.81 1.268L29 13.566v2.867z"/><path d="M15 8c-3.86 0-7 3.14-7 7s3.14 7 7 7 7-3.14 7-7-3.14-7-7-7zm0 13c-3.309 0-6-2.692-6-6 0-3.309 2.691-6 6-6 3.308 0 6 2.691 6 6 0 3.308-2.692 6-6 6z"/><path d="M16 14.5h-2a1.001 1.001 0 010-2h3a.5.5 0 000-1h-3c-1.103 0-2 .897-2 2s.898 2 2 2h2a1.001 1.001 0 010 2h-3a.5.5 0 000 1h3c1.104 0 2-.897 2-2s-.897-2-2-2z"/><path d="M15 10.5a.5.5 0 00-.5.5v8a.5.5 0 001 0v-8a.5.5 0 00-.5-.5z"/></g><defs><clipPath id="clip0"><path fill="#fff" d="M0 0h30v30H0z"/></clipPath></defs></svg>