<svg width="20" height="20" fill="none" xmlns="http://www.w3.org/2000/svg"><path d="M12.969 0a7.031 7.031 0 00-7.031 7.031c0 3.234 2.186 5.951 5.16 6.772.067-.295.113-.598.113-.912 0-.327-.045-.643-.118-.947-1.981-.76-3.398-2.668-3.398-4.913a5.28 5.28 0 015.274-5.273 5.28 5.28 0 015.273 5.273c0 2.1-1.242 3.901-3.022 4.75.05.364.092.731.092 1.11 0 .268-.04.525-.065.787A7.029 7.029 0 0012.97 0z" fill="#F08D0B"/><path d="M8.906 6.198c-.07.293-.117.596-.117.911 0 .327.047.643.122.948 1.98.76 3.394 2.668 3.394 4.912a5.28 5.28 0 01-5.274 5.273 5.28 5.28 0 01-5.273-5.273c0-2.095 1.237-3.893 3.01-4.744a8.109 8.109 0 01-.08-1.116c0-.266.032-.524.057-.784A7.029 7.029 0 007.03 20a7.031 7.031 0 007.032-7.031c0-3.233-2.185-5.95-5.157-6.771z" fill="#F08D0B"/></svg>