<svg width="128" height="18" fill="none" xmlns="http://www.w3.org/2000/svg"><path fill-rule="evenodd" clip-rule="evenodd" d="M57.723 0h-3.47v17.192h3.47V0zM8.629.463c-1.875 0-3.61.602-5.016 1.621l4.97 4.959 5.063-5.005A8.82 8.82 0 008.63.463zm0 17.055a8.522 8.522 0 01-5.016-1.622l4.97-4.959 5.063 5.005a8.82 8.82 0 01-5.017 1.576zM1.641 4.03A8.292 8.292 0 000 8.99c0 1.853.61 3.568 1.594 4.958L6.611 8.99l-4.97-4.96zm15.567 4.96c0-1.854-.61-3.569-1.641-4.959l-4.97 4.959 5.017 4.958a8.579 8.579 0 001.594-4.958zm11.44 5.377h-1.547V3.848h1.922c3.235 0 4.876 1.761 4.876 5.19 0 3.522-1.781 5.33-5.25 5.33zM35.26 3.06C33.712 1.67 31.602.975 28.836.975h-5.298v16.266h4.782c3 0 5.251-.696 6.845-2.132 1.595-1.437 2.392-3.476 2.392-6.163 0-2.55-.798-4.495-2.298-5.886zm15.472 13.3c-.61.325-1.22.51-1.923.649-.703.139-1.5.185-2.438.185-2.016 0-3.61-.51-4.735-1.575-1.125-1.066-1.688-2.595-1.688-4.542 0-1.992.516-3.522 1.547-4.634 1.078-1.112 2.532-1.668 4.36-1.668 1.782 0 3.142.51 4.127 1.483.984.973 1.453 2.363 1.453 4.078v1.622h-7.97c.046.927.328 1.622.843 2.131.516.51 1.266.742 2.25.742.751 0 1.454-.093 2.11-.232a9.846 9.846 0 002.064-.695v2.456zM48.2 9.548c0-.741-.234-1.344-.657-1.76-.422-.418-.984-.603-1.687-.65-.704 0-1.22.232-1.641.65-.422.416-.657 1.019-.704 1.76H48.2zm23.304 6.812c-.61.325-1.22.51-1.923.649-.656.139-1.5.185-2.438.185-2.016 0-3.61-.51-4.735-1.575-1.126-1.066-1.688-2.595-1.688-4.542 0-1.992.515-3.522 1.547-4.634 1.078-1.112 2.485-1.668 4.36-1.668 1.782 0 3.142.51 4.126 1.483.985.973 1.454 2.363 1.454 4.078v1.622h-7.97c.046.927.327 1.622.843 2.131.516.51 1.266.742 2.25.742.75 0 1.454-.093 2.11-.232a9.843 9.843 0 002.064-.695v2.456zM68.97 9.548c0-.741-.235-1.344-.657-1.76-.422-.418-.984-.603-1.688-.65-.703 0-1.219.232-1.64.65-.423.416-.657 1.019-.704 1.76h4.689zm10.308 4.447c-.28-.232-.421-.557-.421-1.02V7.182h3.61v-2.41h-3.61v-2.64h-2.204l-.985 2.64-1.922 1.066v1.344h1.64v5.932c0 1.344.33 2.363.939 3.058.656.696 1.64 1.02 3.047 1.02 1.266 0 2.345-.185 3.189-.602v-2.642a7.058 7.058 0 01-2.204.37 1.434 1.434 0 01-1.079-.323zm15.946 2.365c-.61.325-1.22.51-1.923.649-.703.139-1.5.185-2.438.185-2.016 0-3.61-.51-4.735-1.575-1.126-1.066-1.688-2.595-1.688-4.542 0-1.992.515-3.522 1.547-4.634 1.078-1.112 2.532-1.668 4.36-1.668 1.782 0 3.142.51 4.126 1.483.985.973 1.454 2.363 1.454 4.078v1.622h-7.971c.047.927.329 1.622.844 2.131.516.51 1.266.742 2.251.742.75 0 1.453-.093 2.11-.232a9.854 9.854 0 002.063-.695v2.456zm-2.532-6.812c0-.741-.235-1.344-.657-1.76-.422-.418-.984-.603-1.688-.65-.703 0-1.218.232-1.64.65-.422.416-.657 1.019-.704 1.76h4.689zm14.493 8.155l6.143-14.968h.093c-.093.927-.14 1.807-.14 2.688v12.326h1.172V1.438h-1.735l-5.814 14.319h-.047l-5.814-14.32h-1.782v16.266h1.126V5.515c0-.973-.047-1.9-.094-2.826h.094l6.095 15.014h.703zm19.594-6.72c0-1.343-.281-2.41-.89-3.15-.61-.742-1.454-1.16-2.58-1.16-1.172 0-2.109.371-2.812 1.113-.704.741-1.079 1.807-1.22 3.197h7.502zm.75 5.978a7.54 7.54 0 01-1.922.603c-.562.092-1.219.139-1.875.139-1.782 0-3.142-.51-4.127-1.53-1.031-1.065-1.5-2.502-1.5-4.355 0-1.808.469-3.29 1.407-4.403.937-1.112 2.25-1.668 3.845-1.668 1.406 0 2.532.463 3.376 1.436.844.927 1.265 2.271 1.265 3.893v.88h-8.768c.047 1.576.423 2.735 1.173 3.569.75.788 1.875 1.205 3.282 1.205.703 0 1.312-.047 1.828-.14.563-.092 1.22-.324 2.016-.648v1.02z" fill="#fff"/></svg>