<svg width="150" height="150" fill="none" xmlns="http://www.w3.org/2000/svg"><path d="M99.74 72.067L68.593 49.425a3.756 3.756 0 00-5.965 3.03v45.268a3.745 3.745 0 005.965 3.025L99.74 78.126a3.761 3.761 0 001.557-3.03c.005-1.207-.584-2.32-1.557-3.03z" fill="#fff"/><path d="M75.002.01C33.572.01 0 33.583 0 75.012c0 41.415 33.573 74.978 75.002 74.978 41.42 0 74.998-33.568 74.998-74.978C150.005 33.582 116.422.01 75.002.01zm0 137.466c-34.5 0-62.473-27.957-62.473-62.464 0-34.491 27.972-62.483 62.474-62.483 34.496 0 62.463 27.987 62.463 62.483.005 34.507-27.967 62.464-62.464 62.464z" fill="#fff"/></svg>