<svg width="30" height="30" fill="none" xmlns="http://www.w3.org/2000/svg"><g clip-path="url(#clip0)"><path d="M16.104 1.36l3.968 8.04 8.873 1.29c1.01.146 1.413 1.387.682 2.099l-6.42 6.258 1.515 8.837c.173 1.006-.883 1.773-1.786 1.298L15 25.01l-7.936 4.172c-.903.475-1.959-.292-1.786-1.298l1.516-8.837-6.42-6.258c-.732-.712-.328-1.953.681-2.1L9.928 9.4l3.968-8.04c.452-.914 1.756-.914 2.208 0z" fill="url(#paint0_linear)"/><path d="M20.072 9.4l-3.968-8.04A1.216 1.216 0 0015 .674v15.222L20.072 9.4z" fill="url(#paint1_linear)"/><path d="M23.206 19.047l6.42-6.258c.361-.351.445-.831.317-1.245L15 15.896l8.206 3.151z" fill="url(#paint2_linear)"/><path d="M24.236 29.085L15 15.896v9.115l7.936 4.172c.453.238.945.164 1.3-.096z" fill="url(#paint3_linear)"/><path d="M15 15.896l-8.206 3.151-1.516 8.837c-.086.501.133.943.486 1.201L15 15.896z" fill="url(#paint4_linear)"/><path d="M.057 11.544L15 15.896 9.928 9.4l-8.873 1.29a1.215 1.215 0 00-.998.854z" fill="url(#paint5_linear)"/><path d="M6.794 19.047L.374 12.79a1.215 1.215 0 01-.317-1.245L15 15.896l-8.206 3.151z" fill="url(#paint6_linear)"/></g><defs><linearGradient id="paint0_linear" x1="15.001" y1="4.015" x2="15.001" y2="37.117" gradientUnits="userSpaceOnUse"><stop stop-color="#FFCF95"/><stop offset=".427" stop-color="#FFC954"/><stop offset="1" stop-color="#FFC200"/></linearGradient><linearGradient id="paint1_linear" x1="22.776" y1="8.284" x2="12.769" y2="8.284" gradientUnits="userSpaceOnUse"><stop stop-color="#FFC200" stop-opacity="0"/><stop offset=".203" stop-color="#FB0" stop-opacity=".203"/><stop offset=".499" stop-color="#FFA700" stop-opacity=".499"/><stop offset=".852" stop-color="#F80" stop-opacity=".852"/><stop offset="1" stop-color="#FF7800"/></linearGradient><linearGradient id="paint2_linear" x1="24.485" y1="23.615" x2="21.835" y2="10.565" gradientUnits="userSpaceOnUse"><stop stop-color="#FFC200" stop-opacity="0"/><stop offset=".203" stop-color="#FB0" stop-opacity=".203"/><stop offset=".499" stop-color="#FFA700" stop-opacity=".499"/><stop offset=".852" stop-color="#F80" stop-opacity=".852"/><stop offset="1" stop-color="#FF7800"/></linearGradient><linearGradient id="paint3_linear" x1="11.635" y1="30.474" x2="22.014" y2="20.095" gradientUnits="userSpaceOnUse"><stop stop-color="#FFC200" stop-opacity="0"/><stop offset=".203" stop-color="#FB0" stop-opacity=".203"/><stop offset=".499" stop-color="#FFA700" stop-opacity=".499"/><stop offset=".852" stop-color="#F80" stop-opacity=".852"/><stop offset="1" stop-color="#FF7800"/></linearGradient><linearGradient id="paint4_linear" x1="4.234" y1="17.348" x2="11.884" y2="23.749" gradientUnits="userSpaceOnUse"><stop stop-color="#FFC200" stop-opacity="0"/><stop offset=".203" stop-color="#FB0" stop-opacity=".203"/><stop offset=".499" stop-color="#FFA700" stop-opacity=".499"/><stop offset=".852" stop-color="#F80" stop-opacity=".852"/><stop offset="1" stop-color="#FF7800"/></linearGradient><linearGradient id="paint5_linear" x1="9.969" y1="6.791" x2="6.869" y2="15.591" gradientUnits="userSpaceOnUse"><stop stop-color="#FFC200" stop-opacity="0"/><stop offset=".203" stop-color="#FB0" stop-opacity=".203"/><stop offset=".499" stop-color="#FFA700" stop-opacity=".499"/><stop offset=".852" stop-color="#F80" stop-opacity=".852"/><stop offset="1" stop-color="#FF7800"/></linearGradient><linearGradient id="paint6_linear" x1="21.638" y1="7.71" x2="-1.137" y2="17.41" gradientUnits="userSpaceOnUse"><stop stop-color="#FFC200" stop-opacity="0"/><stop offset=".203" stop-color="#FB0" stop-opacity=".203"/><stop offset=".499" stop-color="#FFA700" stop-opacity=".499"/><stop offset=".852" stop-color="#F80" stop-opacity=".852"/><stop offset="1" stop-color="#FF7800"/></linearGradient><clipPath id="clip0"><path fill="#fff" d="M0 0h30v30H0z"/></clipPath></defs></svg>