<svg width="30" height="30" viewBox="0 0 30 30" fill="none" xmlns="http://www.w3.org/2000/svg">
<g clip-path="url(#clip0)">
<path d="M15 12.4999C12.2425 12.4999 10 10.2574 10 7.49992C10 4.74242 12.2425 2.49992 15 2.49992C17.7575 2.49992 20 4.74242 20 7.49992C20 10.2574 17.7575 12.4999 15 12.4999ZM15 4.37492C13.2762 4.37492 11.875 5.77617 11.875 7.49992C11.875 9.22367 13.2762 10.6249 15 10.6249C16.7237 10.6249 18.125 9.22367 18.125 7.49992C18.125 5.77617 16.7237 4.37492 15 4.37492Z" fill="#F08D0B"/>
<path d="M24.0625 25C23.545 25 23.125 24.58 23.125 24.0625V20.9375C23.125 18.6975 21.3025 16.875 19.0625 16.875H10.9375C8.6975 16.875 6.875 18.6975 6.875 20.9375V24.0625C6.875 24.58 6.455 25 5.9375 25C5.42 25 5 24.58 5 24.0625V20.9375C5 17.6637 7.66375 15 10.9375 15H19.0625C22.3363 15 25 17.6637 25 20.9375V24.0625C25 24.58 24.58 25 24.0625 25Z" fill="#F08D0B"/>
<path d="M0.9375 8.125C0.42 8.125 0 7.705 0 7.1875V3.4375C0 1.54125 1.54125 0 3.4375 0H7.1875C7.705 0 8.125 0.42 8.125 0.9375C8.125 1.455 7.705 1.875 7.1875 1.875H3.4375C2.57625 1.875 1.875 2.57625 1.875 3.4375V7.1875C1.875 7.705 1.455 8.125 0.9375 8.125Z" fill="#F08D0B"/>
<path d="M7.1875 30.0001H3.4375C1.54125 30.0001 0 28.4588 0 26.5626V22.8126C0 22.2951 0.42 21.8751 0.9375 21.8751C1.455 21.8751 1.875 22.2951 1.875 22.8126V26.5626C1.875 27.4238 2.57625 28.1251 3.4375 28.1251H7.1875C7.705 28.1251 8.125 28.5451 8.125 29.0626C8.125 29.5801 7.705 30.0001 7.1875 30.0001Z" fill="#F08D0B"/>
<path d="M29.0625 8.125C28.545 8.125 28.125 7.705 28.125 7.1875V3.4375C28.125 2.57625 27.4237 1.875 26.5625 1.875H22.8125C22.295 1.875 21.875 1.455 21.875 0.9375C21.875 0.42 22.295 0 22.8125 0H26.5625C28.4587 0 30 1.54125 30 3.4375V7.1875C30 7.705 29.58 8.125 29.0625 8.125Z" fill="#F08D0B"/>
<path d="M26.5625 30.0001H22.8125C22.295 30.0001 21.875 29.5801 21.875 29.0626C21.875 28.5451 22.295 28.1251 22.8125 28.1251H26.5625C27.4237 28.1251 28.125 27.4238 28.125 26.5626V22.8126C28.125 22.2951 28.545 21.8751 29.0625 21.8751C29.58 21.8751 30 22.2951 30 22.8126V26.5626C30 28.4588 28.4587 30.0001 26.5625 30.0001Z" fill="#F08D0B"/>
</g>
<defs>
<clipPath id="clip0">
<rect width="30" height="30" fill="white"/>
</clipPath>
</defs>
</svg>
