<svg width="30" height="30" viewBox="0 0 30 30" fill="none" xmlns="http://www.w3.org/2000/svg">
<path d="M27.6288 6.27136L21.4998 0.25177C21.3354 0.0904083 21.1143 0 20.8839 0H5.38879C3.58063 0 2.10938 1.47102 2.10938 3.27942V26.7206C2.10938 28.5287 3.5804 30 5.38879 30H24.6124C26.4205 30 27.8918 28.529 27.8918 26.7206V6.8985C27.8918 6.66252 27.797 6.43661 27.6288 6.27136ZM21.7628 2.97409L24.8637 6.01959H22.0422C21.8882 6.01959 21.7628 5.89417 21.7628 5.74013V2.97409ZM24.6124 28.2422H5.38879C4.54994 28.2422 3.86719 27.5597 3.86719 26.7206V3.27942C3.86719 2.44034 4.54971 1.75781 5.38879 1.75781H20.0052V5.74013C20.0052 6.86348 20.9191 7.7774 22.0425 7.7774H26.134V26.7206C26.134 27.5597 25.4514 28.2422 24.6124 28.2422Z" fill="#F08D0B"/>
<path d="M21.1022 13.9453H8.7124C8.22694 13.9453 7.8335 14.3388 7.8335 14.8242C7.8335 15.3097 8.22694 15.7031 8.7124 15.7031H21.1022C21.5877 15.7031 21.9811 15.3097 21.9811 14.8242C21.9811 14.3388 21.5877 13.9453 21.1022 13.9453Z" fill="#F08D0B"/>
<path d="M8.7124 19.2188H18.8148C19.3002 19.2188 19.6937 18.8253 19.6937 18.3398C19.6937 17.8544 19.3002 17.4609 18.8148 17.4609H8.7124C8.22694 17.4609 7.8335 17.8544 7.8335 18.3398C7.8335 18.8253 8.22694 19.2188 8.7124 19.2188Z" fill="#F08D0B"/>
<path d="M20.0336 20.9766H8.7124C8.22694 20.9766 7.8335 21.37 7.8335 21.8555C7.8335 22.3409 8.22694 22.7344 8.7124 22.7344H20.0336C20.5188 22.7344 20.9125 22.3409 20.9125 21.8555C20.9125 21.37 20.5188 20.9766 20.0336 20.9766Z" fill="#F08D0B"/>
</svg>
