<svg width="30" height="28" viewBox="0 0 30 28" fill="none" xmlns="http://www.w3.org/2000/svg">
<path d="M24.1374 5.325C23.9187 5.325 23.6974 5.24875 23.5199 5.0925C21.1537 3.0175 18.1274 1.875 14.9999 1.875C12.0524 1.875 9.16993 2.90875 6.88243 4.7875C6.48118 5.11625 5.88993 5.0575 5.56243 4.6575C5.23493 4.2575 5.29243 3.66625 5.69243 3.3375C8.31368 1.185 11.6199 0 14.9999 0C18.5824 0 22.0474 1.3075 24.7562 3.6825C25.1449 4.02375 25.1837 4.61625 24.8424 5.00625C24.6574 5.21625 24.3974 5.325 24.1374 5.325Z" fill="#F08D0B"/>
<path d="M9.06249 5H5.9375C5.42 5 5 4.58 5 4.0625V0.9375C5 0.42 5.42 0 5.9375 0C6.455 0 6.875 0.42 6.875 0.9375V3.125H9.06249C9.57999 3.125 9.99999 3.545 9.99999 4.0625C9.99999 4.58 9.57999 5 9.06249 5Z" fill="#F08D0B"/>
<path d="M15.15 27.4999C11.5663 27.4999 8.10127 26.1924 5.39377 23.8174C5.00377 23.4762 4.96627 22.8837 5.30752 22.4937C5.64877 22.1049 6.24127 22.0662 6.63127 22.4074C8.99627 24.4824 12.0213 25.6249 15.15 25.6249C18.0975 25.6249 20.98 24.5912 23.2675 22.7124C23.6675 22.3824 24.2575 22.4412 24.5875 22.8424C24.9163 23.2424 24.8575 23.8337 24.4575 24.1624C21.8363 26.3149 18.53 27.4999 15.15 27.4999Z" fill="#F08D0B"/>
<path d="M24.0625 27.5C23.545 27.5 23.125 27.08 23.125 26.5625V24.375H20.9375C20.42 24.375 20 23.955 20 23.4375C20 22.92 20.42 22.5 20.9375 22.5H24.0625C24.58 22.5 25 22.92 25 23.4375V26.5625C25 27.08 24.58 27.5 24.0625 27.5Z" fill="#F08D0B"/>
<path d="M6.25 13.75C4.5275 13.75 3.125 12.3475 3.125 10.625C3.125 8.9025 4.5275 7.5 6.25 7.5C7.9725 7.5 9.375 8.9025 9.375 10.625C9.375 12.3475 7.9725 13.75 6.25 13.75ZM6.25 9.375C5.56125 9.375 5 9.93625 5 10.625C5 11.3138 5.56125 11.875 6.25 11.875C6.93875 11.875 7.5 11.3138 7.5 10.625C7.5 9.93625 6.93875 9.375 6.25 9.375Z" fill="#F08D0B"/>
<path d="M11.5625 20C11.045 20 10.625 19.58 10.625 19.0625V18.4375C10.625 17.5762 9.92375 16.875 9.0625 16.875H3.4375C2.57625 16.875 1.875 17.5762 1.875 18.4375V19.0625C1.875 19.58 1.455 20 0.9375 20C0.42 20 0 19.58 0 19.0625V18.4375C0 16.5412 1.54125 15 3.4375 15H9.0625C10.9588 15 12.5 16.5412 12.5 18.4375V19.0625C12.5 19.58 12.08 20 11.5625 20Z" fill="#F08D0B"/>
<path d="M23.75 13.75C22.0275 13.75 20.625 12.3475 20.625 10.625C20.625 8.9025 22.0275 7.5 23.75 7.5C25.4725 7.5 26.875 8.9025 26.875 10.625C26.875 12.3475 25.4725 13.75 23.75 13.75ZM23.75 9.375C23.0612 9.375 22.5 9.93625 22.5 10.625C22.5 11.3138 23.0612 11.875 23.75 11.875C24.4387 11.875 25 11.3138 25 10.625C25 9.93625 24.4387 9.375 23.75 9.375Z" fill="#F08D0B"/>
<path d="M29.0625 20C28.545 20 28.125 19.58 28.125 19.0625V18.4375C28.125 17.5762 27.4237 16.875 26.5625 16.875H20.9375C20.0762 16.875 19.375 17.5762 19.375 18.4375V19.0625C19.375 19.58 18.955 20 18.4375 20C17.92 20 17.5 19.58 17.5 19.0625V18.4375C17.5 16.5412 19.0412 15 20.9375 15H26.5625C28.4587 15 30 16.5412 30 18.4375V19.0625C30 19.58 29.58 20 29.0625 20Z" fill="#F08D0B"/>
</svg>
