<svg width="27" height="30" viewBox="0 0 27 30" fill="none" xmlns="http://www.w3.org/2000/svg">
<path d="M13.1836 0C5.91416 0 0 5.91416 0 13.1836C0 13.9892 0 20.2212 0 20.332C0 21.7859 1.18283 22.9688 2.63672 22.9688H3.6668C4.02961 23.9917 5.00654 24.7266 6.15234 24.7266C7.60623 24.7266 8.78906 23.5437 8.78906 22.0898V14.9414C8.78906 13.4875 7.60623 12.3047 6.15234 12.3047C5.00654 12.3047 4.02961 13.0396 3.6668 14.0625H2.63672C2.32857 14.0625 2.03291 14.1161 1.75781 14.2137V13.1836C1.75781 6.88342 6.88342 1.75781 13.1836 1.75781C19.4838 1.75781 24.6094 6.88342 24.6094 13.1836V14.2137C24.3343 14.1161 24.0386 14.0625 23.7305 14.0625H22.7004C22.3376 13.0396 21.3606 12.3047 20.2148 12.3047C18.761 12.3047 17.5781 13.4875 17.5781 14.9414V22.0898C17.5781 23.5437 18.761 24.7266 20.2148 24.7266C20.4809 24.7266 20.7378 24.6866 20.9801 24.6129C20.6514 25.6947 19.6448 26.4844 18.457 26.4844H15.6691C15.3063 25.4614 14.3294 24.7266 13.1836 24.7266C11.7297 24.7266 10.5469 25.9094 10.5469 27.3633C10.5469 28.8172 11.7297 30 13.1836 30C14.3294 30 15.3063 29.2651 15.6691 28.2422H18.457C20.8802 28.2422 22.8516 26.2708 22.8516 23.8477V22.9688H23.7305C25.1844 22.9688 26.3672 21.7859 26.3672 20.332C26.3672 20.2228 26.3672 13.9886 26.3672 13.1836C26.3672 5.91416 20.453 0 13.1836 0ZM5.27344 14.9414C5.27344 14.4568 5.66772 14.0625 6.15234 14.0625C6.63697 14.0625 7.03125 14.4568 7.03125 14.9414V22.0898C7.03125 22.5745 6.63697 22.9688 6.15234 22.9688C5.66772 22.9688 5.27344 22.5745 5.27344 22.0898V14.9414ZM2.63672 15.8203H3.51562V21.2109H2.63672C2.15209 21.2109 1.75781 20.8167 1.75781 20.332V16.6992C1.75781 16.2146 2.15209 15.8203 2.63672 15.8203ZM13.1836 28.2422C12.699 28.2422 12.3047 27.8479 12.3047 27.3633C12.3047 26.8787 12.699 26.4844 13.1836 26.4844C13.6682 26.4844 14.0625 26.8787 14.0625 27.3633C14.0625 27.8479 13.6682 28.2422 13.1836 28.2422ZM21.0938 22.0898C21.0938 22.5745 20.6995 22.9688 20.2148 22.9688C19.7302 22.9688 19.3359 22.5745 19.3359 22.0898V14.9414C19.3359 14.4568 19.7302 14.0625 20.2148 14.0625C20.6995 14.0625 21.0938 14.4568 21.0938 14.9414V22.0898ZM24.6094 20.332C24.6094 20.8167 24.2151 21.2109 23.7305 21.2109H22.8516V15.8203H23.7305C24.2151 15.8203 24.6094 16.2146 24.6094 16.6992V20.332Z" fill="#F08D0B"/>
</svg>
