<svg width="20" height="24" viewBox="0 0 20 24" fill="none" xmlns="http://www.w3.org/2000/svg">
<path d="M9.66683 11.3333C8.10989 11.3333 6.76188 10.7749 5.66014 9.67313C4.55875 8.57153 4.00016 7.22366 4.00016 5.66649C4.00016 4.10985 4.55857 2.7618 5.66031 1.65985C6.76206 0.558428 8.11007 0 9.66683 0C11.224 0 12.5718 0.558428 13.6733 1.66003C14.7749 2.76162 15.3335 4.10967 15.3335 5.66649C15.3335 7.22366 14.7749 8.57171 13.6733 9.67331C12.5714 10.7747 11.2234 11.3333 9.66683 11.3333ZM12.6983 2.6349C11.8531 1.78962 10.8616 1.37875 9.66683 1.37875C8.47229 1.37875 7.48058 1.78962 6.63515 2.6349C5.78991 3.48034 5.37887 4.47209 5.37887 5.66649C5.37887 6.86125 5.78991 7.85281 6.63515 8.69826C7.48058 9.54371 8.47229 9.95459 9.66683 9.95459C10.8612 9.95459 11.8527 9.54353 12.6983 8.69826C13.5437 7.85299 13.9548 6.86125 13.9548 5.66649C13.9548 4.47209 13.5437 3.48034 12.6983 2.6349Z" fill="#F08D0B"/>
<path d="M0.0484676 18.3387C0.0808392 17.8613 0.146315 17.3405 0.242699 16.7905C0.339996 16.2364 0.465279 15.7126 0.61525 15.2339C0.770342 14.7391 0.980852 14.2504 1.24147 13.7821C1.5116 13.2961 1.82911 12.8729 2.18538 12.5246C2.55793 12.1603 3.01406 11.8673 3.54153 11.6537C4.06716 11.4411 4.64967 11.3334 5.27278 11.3334C5.51749 11.3334 5.75416 11.4361 6.2112 11.7402C6.49249 11.9277 6.82152 12.1446 7.18876 12.3844C7.50279 12.5889 7.9282 12.7805 8.45365 12.954C8.96629 13.1235 9.4868 13.2095 10.0007 13.2095C10.5143 13.2095 11.0348 13.1235 11.5478 12.954C12.0727 12.7807 12.4983 12.5891 12.8118 12.3846C13.1756 12.147 13.5048 11.9301 13.7903 11.74C14.2469 11.4359 14.4836 11.3333 14.7283 11.3333C15.3516 11.3333 15.9339 11.4411 16.4594 11.6538C16.9865 11.8671 17.4428 12.1601 17.8157 12.5248C18.172 12.8732 18.4895 13.2963 18.7594 13.7821C19.0197 14.2504 19.2304 14.7389 19.3855 15.2341C19.5353 15.7128 19.6606 16.2364 19.7579 16.7905C19.8544 17.3397 19.9197 17.8607 19.9521 18.3393C19.9839 18.8072 20 19.2942 20 19.7862C20 21.0652 19.6022 22.1006 18.8178 22.8643C18.0431 23.6178 17.0181 23.9999 15.7713 23.9999H4.22865C2.98224 23.9999 1.95731 23.6178 1.1824 22.8643C0.397791 22.1012 0 21.0654 0 19.786C0.000183105 19.2923 0.0164604 18.8053 0.0484676 18.3387ZM2.151 21.824C2.66291 22.322 3.34254 22.5641 4.22884 22.5641H15.7713C16.6578 22.5641 17.3375 22.322 17.8492 21.8242C18.3512 21.3357 18.5952 20.6689 18.5952 19.7862C18.5952 19.3271 18.5804 18.8737 18.5508 18.4385C18.5219 18.0116 18.4628 17.5426 18.3752 17.0442C18.2887 16.552 18.1786 16.0901 18.0476 15.6719C17.922 15.2709 17.7506 14.8738 17.5381 14.4914C17.3353 14.1268 17.1019 13.8141 16.8444 13.5621C16.6035 13.3264 16.2999 13.1335 15.9422 12.9888C15.6113 12.8549 15.2395 12.7816 14.8359 12.7706C14.7867 12.7973 14.6991 12.8484 14.5571 12.943C14.2683 13.1353 13.9355 13.3548 13.5675 13.595C13.1527 13.8653 12.6183 14.1095 11.9798 14.3201C11.3271 14.5359 10.6613 14.6454 10.0005 14.6454C9.33976 14.6454 8.67385 14.5359 8.02147 14.3203C7.38245 14.1093 6.84822 13.8653 6.43287 13.5946C6.05629 13.3486 5.73276 13.1355 5.44397 12.943C5.30205 12.8486 5.21444 12.7973 5.16524 12.7706C4.76142 12.7816 4.3896 12.8549 4.05856 12.9888C3.70101 13.1335 3.39741 13.3266 3.15654 13.5621C2.89902 13.8139 2.66566 14.1267 2.46283 14.4916C2.25012 14.8738 2.07857 15.2711 1.95311 15.6717C1.82197 16.0904 1.71169 16.5522 1.62536 17.044C1.53794 17.5433 1.47868 18.0125 1.44979 18.4387V18.4391C1.41998 18.8726 1.40498 19.3257 1.4048 19.7862C1.40498 20.6691 1.64896 21.3357 2.151 21.824Z" fill="#F08D0B"/>
</svg>
