<svg width="25" height="25" viewBox="0 0 25 25" fill="none" xmlns="http://www.w3.org/2000/svg">
<path d="M12.4023 7.54395C12.4023 7.00459 12.8396 6.56738 13.3789 6.56738H20.166C20.7054 6.56738 21.1426 7.00459 21.1426 7.54395C21.1426 8.0833 20.7054 8.52051 20.166 8.52051H13.3789C12.8396 8.52051 12.4023 8.0833 12.4023 7.54395ZM13.3789 12.4756H20.166C20.7054 12.4756 21.1426 12.0384 21.1426 11.499C21.1426 10.9597 20.7054 10.5225 20.166 10.5225H13.3789C12.8396 10.5225 12.4023 10.9597 12.4023 11.499C12.4023 12.0384 12.8396 12.4756 13.3789 12.4756ZM20.166 16.4795H15.332C14.7927 16.4795 14.3555 16.9167 14.3555 17.4561C14.3555 17.9954 14.7927 18.4326 15.332 18.4326H20.166C20.7054 18.4326 21.1426 17.9954 21.1426 17.4561C21.1426 16.9167 20.7054 16.4795 20.166 16.4795ZM4.81011 13.6963H8.86177C9.36094 13.6963 9.76562 13.2932 9.76562 12.7959V12.7085C9.76562 11.3704 8.85664 10.2406 7.62173 9.89751C8.19795 9.60898 8.59375 9.01348 8.59375 8.3252C8.59375 7.35439 7.80674 6.56738 6.83594 6.56738C5.86514 6.56738 5.07812 7.35439 5.07812 8.3252C5.07812 9.01396 5.47446 9.60981 6.05137 9.89814C4.80859 10.2482 3.90625 11.4083 3.90625 12.7551V12.7958C3.90625 13.2932 4.31094 13.6963 4.81011 13.6963ZM4.88281 18.4326H11.4258C11.9651 18.4326 12.4023 17.9954 12.4023 17.4561C12.4023 16.9167 11.9651 16.4795 11.4258 16.4795H4.88281C4.34346 16.4795 3.90625 16.9167 3.90625 17.4561C3.90625 17.9954 4.34346 18.4326 4.88281 18.4326ZM25 3.6377V21.3623C25 21.9017 24.5628 22.3389 24.0234 22.3389H0.976562C0.437207 22.3389 0 21.9017 0 21.3623V3.6377C0 3.09834 0.437207 2.66113 0.976562 2.66113H24.0234C24.5628 2.66113 25 3.09834 25 3.6377ZM23.0469 4.61426H1.95312V20.3857H23.0469V4.61426Z" fill="#F08D0B"/>
</svg>
