<svg width="25" height="25" viewBox="0 0 25 25" fill="none" xmlns="http://www.w3.org/2000/svg">
<path d="M19.6182 0.77166C19.0604 0.23963 18.3288 -0.0330743 17.5592 0.0032049L7.17705 0.494659C5.6855 0.565264 4.51709 1.79031 4.51709 3.28352V13.7132C4.51709 15.3377 5.83867 16.6592 7.46308 16.6592H7.77973L6.83081 24.9999H18.1694L17.2205 16.6592H17.5371C19.1616 16.6592 20.4831 15.3376 20.4831 13.7132V2.79202C20.4832 2.02122 20.176 1.30369 19.6182 0.77166ZM5.98193 3.28357C5.98193 2.57376 6.5373 1.99148 7.24633 1.95794L17.6285 1.46643C17.6502 1.46541 17.6718 1.46487 17.6933 1.46487C18.0353 1.46487 18.3578 1.59378 18.6072 1.83172C18.8723 2.0846 19.0184 2.42566 19.0184 2.79207V5.41501C18.5829 5.16057 18.077 5.01399 17.5372 5.01399H11.2805V5.74641C11.2805 7.25334 11.5923 8.46403 12.1781 9.33346H8.68207C7.19321 9.33346 5.98188 8.12213 5.98188 6.63327V3.28357H5.98193ZM17.5372 15.1944H15.5796L16.5285 23.5351H8.47177L9.42069 15.1944H7.46308C6.64633 15.1944 5.98193 14.53 5.98193 13.7133V9.80065C6.70966 10.4219 7.65248 10.7983 8.68212 10.7983H14.3217C14.41 10.8183 14.4994 10.8365 14.5911 10.8509V11.92H16.056V9.44117H15.3236C14.4283 9.44117 13.7877 9.12579 13.365 8.47702C13.0484 7.99118 12.8483 7.30895 12.7759 6.47883H17.5372C18.3539 6.47883 19.0183 7.14328 19.0183 7.95998V13.7132C19.0183 14.53 18.3539 15.1944 17.5372 15.1944Z" fill="#F08D0B"/>
</svg>
