<svg width="25" height="25" viewBox="0 0 25 25" fill="none" xmlns="http://www.w3.org/2000/svg">
<path d="M18.1641 9.32617C15.6592 9.32617 13.465 10.6807 12.2746 12.6955L6.29907 10.1198C6.33037 9.94121 6.34766 9.75776 6.34766 9.57031C6.34766 9.38286 6.33037 9.19941 6.29907 9.0208L12.4206 6.38218C12.9134 6.98638 13.6633 7.37305 14.502 7.37305C15.9828 7.37305 17.1875 6.16831 17.1875 4.6875C17.1875 3.20669 15.9828 2.00195 14.502 2.00195C13.0211 2.00195 11.8164 3.20669 11.8164 4.6875C11.8164 4.80615 11.825 4.92275 11.8399 5.0374L5.71865 7.67593C5.1395 6.8999 4.2144 6.39648 3.17383 6.39648C1.42378 6.39648 0 7.82026 0 9.57031C0 11.3204 1.42378 12.7441 3.17383 12.7441C4.2144 12.7441 5.1395 12.2407 5.71865 11.4647L11.6691 14.0296C11.4481 14.701 11.3281 15.4177 11.3281 16.1621C11.3281 19.9314 14.3947 22.998 18.1641 22.998C21.9334 22.998 25 19.9314 25 16.1621C25 12.3928 21.9334 9.32617 18.1641 9.32617ZM14.502 3.4668C15.175 3.4668 15.7227 4.0144 15.7227 4.6875C15.7227 5.3606 15.175 5.9082 14.502 5.9082C13.8289 5.9082 13.2812 5.3606 13.2812 4.6875C13.2812 4.0144 13.8289 3.4668 14.502 3.4668ZM3.17383 11.2793C2.23149 11.2793 1.46484 10.5126 1.46484 9.57031C1.46484 8.62798 2.23149 7.86133 3.17383 7.86133C4.11616 7.86133 4.88281 8.62798 4.88281 9.57031C4.88281 10.5126 4.11616 11.2793 3.17383 11.2793ZM15.4785 20.8122V20.8008C15.4785 19.32 16.6833 18.1152 18.1641 18.1152C19.6449 18.1152 20.8496 19.32 20.8496 20.8008V20.8122C20.0591 21.2705 19.1417 21.5332 18.1641 21.5332C17.1864 21.5332 16.269 21.2705 15.4785 20.8122ZM16.9434 15.4297C16.9434 14.7566 17.491 14.209 18.1641 14.209C18.8372 14.209 19.3848 14.7566 19.3848 15.4297C19.3848 16.1028 18.8372 16.6504 18.1641 16.6504C17.491 16.6504 16.9434 16.1028 16.9434 15.4297ZM22.174 19.7313C21.8829 18.6406 21.1576 17.7259 20.1953 17.1834C20.6024 16.7125 20.8496 16.0996 20.8496 15.4297C20.8496 13.9489 19.6449 12.7441 18.1641 12.7441C16.6833 12.7441 15.4785 13.9489 15.4785 15.4297C15.4785 16.0996 15.7257 16.7125 16.1328 17.1834C15.1706 17.7259 14.4453 18.6406 14.1541 19.7313C13.308 18.7817 12.793 17.531 12.793 16.1621C12.793 13.2005 15.2024 10.791 18.1641 10.791C21.1257 10.791 23.5352 13.2005 23.5352 16.1621C23.5352 17.531 23.0201 18.7817 22.174 19.7313Z" fill="#F08D0B"/>
</svg>
