<svg width="20" height="20" viewBox="0 0 20 20" fill="none" xmlns="http://www.w3.org/2000/svg">
<g clip-path="url(#clip0)">
<path d="M19.4243 14.9931L16.5336 12.1012C16.1454 11.715 15.6256 11.5022 15.0701 11.5022C14.492 11.5022 13.9462 11.7298 13.5335 12.1427L12.4083 13.2677C11.5339 12.7817 10.3718 12.1133 9.16522 10.9067C7.96007 9.70115 7.29155 8.54242 6.80307 7.66334L7.92937 6.53787C8.76675 5.69875 8.78388 4.35254 7.96768 3.53708L5.07759 0.646916C4.69047 0.258714 4.17063 0.0449219 3.61373 0.0449219C3.04855 0.0449219 2.51391 0.26252 2.10361 0.658582C1.8554 0.858474 0.609797 1.95805 0.14556 4.2257C-0.504422 7.39974 0.98898 10.4536 5.30024 14.7666C10.1163 19.5812 14.2277 19.9554 15.3731 19.9554C15.6116 19.9554 15.7555 19.9407 15.7939 19.9362C18.0399 19.6729 18.8441 18.6755 19.4313 17.9471C20.1922 17.0032 20.1895 15.7611 19.4243 14.9931ZM18.4651 17.1682C17.9132 17.8527 17.3919 18.4992 15.6495 18.7035C15.6486 18.7036 15.5533 18.7143 15.3731 18.7143C14.3484 18.7143 10.6565 18.3663 6.17783 13.889C2.20207 9.91163 0.806628 7.18404 1.36138 4.47458C1.76629 2.49667 2.8413 1.65598 2.88308 1.62404L2.92014 1.59665L2.95266 1.56405C3.13212 1.38476 3.36684 1.28598 3.61365 1.28598C3.83836 1.28598 4.0462 1.3702 4.19942 1.52393L7.09017 4.41476C7.42277 4.74703 7.40507 5.30616 7.0512 5.66077L5.77747 6.93343L5.75653 6.95536C5.42459 7.32097 5.46365 7.81508 5.64649 8.13684C6.17411 9.08898 6.89682 10.393 8.28746 11.7841C9.67347 13.1701 10.9756 13.8922 11.9251 14.4188C12.0201 14.4722 12.2164 14.5617 12.462 14.5617C12.7521 14.5617 13.0184 14.4389 13.2156 14.2151L14.411 13.0201C14.5895 12.8415 14.8234 12.7431 15.0699 12.7431C15.2951 12.7431 15.504 12.8276 15.6569 12.9797L18.5457 15.8697C18.9126 16.2379 18.7611 16.801 18.4651 17.1682Z" fill="#F08D0B"/>
<path d="M12.1165 3.08543C13.1827 3.20813 14.4382 3.85397 15.3149 4.73074C16.1998 5.61561 16.8472 6.8838 16.9641 7.96161C16.9986 8.27957 17.2675 8.51521 17.5802 8.51521C17.6026 8.51521 17.6252 8.51397 17.6479 8.51157C17.9886 8.47458 18.2348 8.16846 18.1978 7.82775C18.05 6.46532 17.2815 4.94238 16.1925 3.85323C15.1136 2.77426 13.6062 2.0077 12.2584 1.85257C11.9181 1.8131 11.6102 2.05767 11.571 2.39805C11.5318 2.73843 11.776 3.04621 12.1165 3.08543Z" fill="#F08D0B"/>
<path d="M11.537 5.68515C12.1137 5.75159 12.9117 6.17934 13.4346 6.70216C13.9618 7.22952 14.3904 8.03521 14.4536 8.6181C14.4881 8.93614 14.757 9.17177 15.0697 9.17177C15.092 9.17177 15.1146 9.17053 15.1373 9.16813C15.478 9.13115 15.7243 8.82502 15.6873 8.48431C15.5794 7.48915 14.9188 6.43136 14.312 5.82457C13.7107 5.22315 12.6632 4.56564 11.6789 4.45221C11.3381 4.41258 11.0306 4.65723 10.9914 4.99761C10.9523 5.33807 11.1965 5.64594 11.537 5.68515Z" fill="#F08D0B"/>
</g>
<defs>
<clipPath id="clip0">
<rect width="20" height="20" fill="white"/>
</clipPath>
</defs>
</svg>
