<svg width="20" height="16" viewBox="0 0 20 16" fill="none" xmlns="http://www.w3.org/2000/svg">
<path d="M18.2422 0H1.75781C0.789766 0 0 0.796686 0 1.77515V13.6095C0 14.5846 0.78625 15.3846 1.75781 15.3846H18.2422C19.2078 15.3846 20 14.5906 20 13.6095V1.77515C20 0.8 19.2138 0 18.2422 0ZM17.9995 1.18343L10.0373 9.22418L2.00621 1.18343H17.9995ZM1.17188 13.3644V2.01456L6.81559 7.66505L1.17188 13.3644ZM2.00051 14.2012L7.64777 8.49822L9.62656 10.4794C9.85563 10.7087 10.2253 10.708 10.4534 10.4776L12.3828 8.52911L17.9995 14.2012H2.00051ZM18.8281 13.3644L13.2114 7.69231L18.8281 2.0202V13.3644Z" fill="#F08D0B"/>
</svg>
