<svg width="25" height="25" viewBox="0 0 25 25" fill="none" xmlns="http://www.w3.org/2000/svg">
<path d="M24.5154 5.02432C24.5138 5.02432 24.5121 5.02432 24.5106 5.02432H22.8678V4.46219C22.8766 4.23971 22.7327 4.03975 22.5189 3.9776C21.3784 3.67873 20.204 3.52887 19.025 3.53178C17.0866 3.53178 14.4456 3.96791 12.4927 5.95473C10.5544 3.94853 7.89397 3.53178 5.96046 3.53178C4.78145 3.52887 3.60705 3.67873 2.46656 3.9776C2.25274 4.03975 2.10881 4.23971 2.11766 4.46219V5.01947H0.48459C0.216975 5.01947 0 5.23645 0 5.50406V20.9819C0 21.2495 0.216975 21.4665 0.48459 21.4665C0.567818 21.4662 0.649593 21.4445 0.722039 21.4035C0.770498 21.3792 5.6164 18.7285 12.3813 20.4343H12.454H12.4976C12.5362 20.4389 12.5752 20.4389 12.6139 20.4343C19.3981 18.714 24.244 21.3598 24.2731 21.4035C24.423 21.49 24.6078 21.49 24.7577 21.4035C24.9067 21.3174 24.999 21.1588 25 20.9867V5.50891C25 5.24129 24.7831 5.02432 24.5154 5.02432ZM0.96918 20.2114V5.9935H2.12735V18.147C2.12432 18.4146 2.33881 18.634 2.60643 18.6371C2.6326 18.6374 2.65876 18.6355 2.68463 18.6316C3.68712 18.4785 4.69925 18.3975 5.71332 18.3893C7.11802 18.365 8.51685 18.5762 9.85172 19.0144C6.83726 18.6499 3.77962 19.0619 0.96918 20.2114ZM5.71332 17.425C4.83191 17.427 3.95153 17.4836 3.07715 17.5946V4.84502C4.02064 4.63483 4.98413 4.52755 5.95077 4.52519C7.76313 4.52519 10.2636 4.94194 11.9984 6.89968L12.013 18.9708C11.005 18.3118 9.0376 17.425 5.71332 17.425ZM12.9822 6.89968C14.717 4.96132 17.2175 4.52519 19.0299 4.52519C19.9964 4.52804 20.9599 4.63525 21.9035 4.84502V17.5946C21.034 17.4826 20.1585 17.4243 19.2818 17.4201C15.9769 17.4201 14.0047 18.3069 12.9822 18.966V6.89968ZM24.026 20.2114C21.2095 19.0588 18.1449 18.6467 15.1241 19.0144C16.4652 18.5747 17.8707 18.3633 19.2818 18.3893C20.3023 18.395 21.3209 18.4744 22.3299 18.6268C22.5945 18.6669 22.8416 18.485 22.8817 18.2204C22.8857 18.1945 22.8875 18.1683 22.8872 18.1422V5.9935H24.0454L24.026 20.2114Z" fill="#F08D0B"/>
</svg>
