<svg width="30" height="30" viewBox="0 0 30 30" fill="none" xmlns="http://www.w3.org/2000/svg">
<g clip-path="url(#clip0)">
<path d="M29.8315 12.626C29.724 12.531 29.5815 12.486 29.4385 12.5045L26.8855 12.8235C26.5545 12.862 26.2505 12.6455 26.1715 12.3145C25.893 11.151 25.4355 10.0435 24.812 9.0225C24.6355 8.73398 24.6985 8.36402 24.9585 8.16199L26.8075 6.72398C26.9205 6.63551 26.9904 6.50297 26.9995 6.36C27.0085 6.21697 26.9555 6.07699 26.854 5.97551L24.0255 3.14701C23.924 3.04553 23.784 2.98951 23.641 3.00152C23.4975 3.01002 23.365 3.08004 23.277 3.19354L21.839 5.04252C21.637 5.3025 21.2675 5.36502 20.9785 5.189C19.9585 4.56598 18.851 4.10848 17.6865 3.82951C17.355 3.75 17.136 3.44303 17.1775 3.11549L17.4965 0.561973C17.514 0.419473 17.47 0.276445 17.375 0.168984C17.28 0.0615234 17.1435 0 17 0H13C12.8565 0 12.7199 0.0615234 12.6255 0.168984C12.5305 0.276504 12.486 0.419473 12.504 0.561973L12.8235 3.11496C12.864 3.44297 12.645 3.74947 12.314 3.82898C11.1495 4.10801 10.0425 4.56551 9.02203 5.18848C8.73404 5.36496 8.36355 5.30197 8.16152 5.04199L6.72352 3.19301C6.63504 3.07998 6.5025 3.01002 6.35953 3.001C6.21551 2.98898 6.07652 3.045 5.97504 3.14648L3.14648 5.97498C3.045 6.07646 2.99197 6.2165 3.001 6.35947C3.01002 6.5025 3.07998 6.63498 3.19348 6.72299L5.04246 8.161C5.30197 8.36303 5.36496 8.73299 5.18895 9.0215C4.56545 10.0425 4.10795 11.15 3.82945 12.3135C3.75047 12.645 3.44297 12.8635 3.11543 12.8225L0.561914 12.5035C0.418887 12.485 0.276387 12.53 0.168926 12.625C0.0614648 12.7201 0 12.8565 0 13V17C0 17.1435 0.0615234 17.2801 0.168516 17.3745C0.276035 17.4695 0.418535 17.5155 0.561504 17.496L3.11502 17.1771C3.4425 17.136 3.74953 17.3545 3.82904 17.6861C4.10754 18.8496 4.56504 19.957 5.18854 20.978C5.36502 21.2665 5.30203 21.6365 5.04205 21.8385L3.19307 23.2765C3.08004 23.365 3.01008 23.497 3.00105 23.6405C2.99203 23.7836 3.04506 23.9235 3.14654 24.025L5.97457 26.853C6.07606 26.9545 6.2151 27.009 6.35906 26.9985C6.50256 26.99 6.63504 26.92 6.72305 26.8065L8.16105 24.9575C8.36303 24.6976 8.73258 24.6345 9.02156 24.8111C10.0416 25.4341 11.149 25.8916 12.3135 26.1705C12.6451 26.2501 12.864 26.557 12.823 26.8846L12.5035 29.4381C12.486 29.5806 12.53 29.7236 12.625 29.8311C12.72 29.9386 12.8565 30.0001 13 30.0001H17C17.1435 30.0001 17.2801 29.9385 17.374 29.8315C17.469 29.724 17.5136 29.5811 17.4956 29.4386L17.1766 26.8856C17.1361 26.5576 17.3551 26.2511 17.6861 26.1715C18.8505 25.8925 19.9576 25.435 20.978 24.8121C21.2665 24.6356 21.637 24.6986 21.8385 24.9585L23.2765 26.8075C23.365 26.9205 23.497 26.9905 23.6405 26.9995C23.7836 27.01 23.9235 26.9555 24.025 26.854L26.8535 24.0255C26.955 23.9241 27.008 23.784 26.999 23.6411C26.9905 23.4976 26.9205 23.3651 26.807 23.2771L24.958 21.8391C24.6985 21.637 24.635 21.2671 24.8115 20.9786C25.435 19.9576 25.8925 18.8501 26.171 17.6866C26.25 17.3556 26.5595 17.1391 26.885 17.1776L29.438 17.4966C29.581 17.5161 29.724 17.4701 29.831 17.375C29.9385 17.2801 30 17.1435 30 17V13C30 12.8565 29.9385 12.72 29.8315 12.626ZM29 16.4335L27.008 16.1845C26.1725 16.082 25.3955 16.626 25.197 17.453C24.9429 18.515 24.5259 19.5255 23.9569 20.457C23.5154 21.1799 23.6814 22.1135 24.3434 22.628L25.7454 23.7185L23.7179 25.746L22.6279 24.3445C22.1133 23.6825 21.1798 23.516 20.4568 23.958C19.5258 24.526 18.5153 24.9435 17.4529 25.198C16.6259 25.396 16.0804 26.1745 16.1844 27.0085L16.4334 29H13.5664L13.8149 27.008C13.9189 26.1739 13.3734 25.3955 12.5464 25.1975C11.4839 24.9429 10.4734 24.526 9.54287 23.9575C8.82035 23.516 7.88637 23.682 7.37186 24.3439L6.28137 25.7459L4.25385 23.7184L5.65582 22.6279C6.31781 22.1134 6.48381 21.1799 6.0423 20.4569C5.47383 19.5254 5.05629 18.5149 4.80229 17.4529C4.60377 16.6249 3.8243 16.0804 2.99127 16.1844L0.999785 16.4334V13.5664L2.99127 13.8149C3.82377 13.9189 4.60377 13.374 4.80229 12.5464C5.05629 11.485 5.4733 10.4745 6.0423 9.54246C6.48381 8.81947 6.31729 7.88596 5.65582 7.37145L4.25385 6.28096L6.28137 4.25344L7.37186 5.65541C7.88637 6.3174 8.81988 6.48393 9.54287 6.04189C10.4739 5.47389 11.4844 5.05641 12.5469 4.80188C13.3738 4.60389 13.9194 3.82535 13.8154 2.99139L13.5663 0.999902H16.4333L16.1853 2.99139C16.0813 3.82541 16.6268 4.60389 17.4538 4.80188C18.5163 5.05641 19.5268 5.47336 20.4573 6.04189C21.1803 6.4834 22.1138 6.3174 22.6288 5.65541L23.7188 4.25391L25.7463 6.28143L24.3444 7.37191C23.6824 7.88643 23.5164 8.81994 23.9579 9.54293C24.5263 10.4745 24.9439 11.4849 25.1979 12.5469C25.3964 13.3749 26.1769 13.9199 27.0089 13.8154L28.9999 13.5664V16.4335H29Z" fill="#F08D0B"/>
<path d="M15 8C11.14 8 8 11.14 8 15C8 18.86 11.14 22 15 22C18.86 22 22 18.86 22 15C22 11.14 18.86 8 15 8ZM15 21C11.6915 21 9.00002 18.3085 9.00002 15C9.00002 11.6915 11.6915 9.00002 15 9.00002C18.3085 9.00002 21 11.6915 21 15C21 18.3085 18.3085 21 15 21Z" fill="#F08D0B"/>
<path d="M16.0004 14.5H14.0005C13.449 14.5 13.0004 14.0515 13.0004 13.5C13.0004 12.9485 13.4489 12.5 14.0005 12.5H17.0005C17.2764 12.5 17.5004 12.276 17.5004 12C17.5004 11.724 17.2764 11.5 17.0005 11.5H14.0005C12.8974 11.5 12.0005 12.397 12.0005 13.5C12.0005 14.6029 12.8975 15.5 14.0005 15.5H16.0004C16.5519 15.5 17.0005 15.9484 17.0005 16.5C17.0005 17.0515 16.552 17.5 16.0004 17.5H13.0004C12.7245 17.5 12.5005 17.724 12.5005 18C12.5005 18.276 12.7245 18.5 13.0004 18.5H16.0004C17.1035 18.5 18.0004 17.603 18.0004 16.5C18.0004 15.397 17.1034 14.5 16.0004 14.5Z" fill="#F08D0B"/>
<path d="M15 10.5C14.724 10.5 14.5 10.724 14.5 11V19C14.5 19.276 14.724 19.5 15 19.5C15.276 19.5 15.5 19.276 15.5 19V11C15.5 10.724 15.276 10.5 15 10.5Z" fill="#F08D0B"/>
</g>
<defs>
<clipPath id="clip0">
<rect width="30" height="30" fill="white"/>
</clipPath>
</defs>
</svg>
