<svg width="20" height="20" viewBox="0 0 20 20" fill="none" xmlns="http://www.w3.org/2000/svg">
<path d="M12.9688 0C9.08547 0 5.9375 3.14797 5.9375 7.03125C5.9375 10.2654 8.12391 12.9823 11.0971 13.8027C11.1649 13.5085 11.2109 13.2054 11.2109 12.8906C11.2109 12.5639 11.1657 12.2485 11.0928 11.944C9.1116 11.1846 7.69531 9.27645 7.69531 7.03125C7.69531 4.12332 10.0608 1.75781 12.9688 1.75781C15.8767 1.75781 18.2422 4.12332 18.2422 7.03125C18.2422 9.13066 17.0004 10.9325 15.2204 11.7805C15.2702 12.1451 15.3125 12.5125 15.3125 12.8906C15.3125 13.1588 15.2725 13.4162 15.2472 13.6778C18.0107 12.7303 20 10.1159 20 7.03125C20 3.14797 16.852 0 12.9688 0Z" fill="#F08D0B"/>
<path d="M8.90578 6.198C8.83527 6.49132 8.78906 6.79401 8.78906 7.10936C8.78906 7.43601 8.83621 7.75159 8.91129 8.05722C10.8904 8.81761 12.3047 10.7251 12.3047 12.9687C12.3047 15.8767 9.93918 18.2422 7.03125 18.2422C4.12332 18.2422 1.75781 15.8767 1.75781 12.9687C1.75781 10.8737 2.99484 9.07554 4.76883 8.22538C4.71797 7.8589 4.6875 7.48694 4.6875 7.10936C4.6875 6.84292 4.71988 6.58507 4.74492 6.32515C1.9857 7.27487 0 9.88698 0 12.9687C0 16.852 3.14797 20 7.03125 20C10.9145 20 14.0625 16.852 14.0625 12.9687C14.0625 9.73565 11.8776 7.01933 8.90578 6.198Z" fill="#F08D0B"/>
</svg>
