<svg width="128" height="18" viewBox="0 0 128 18" fill="none" xmlns="http://www.w3.org/2000/svg">
<path fill-rule="evenodd" clip-rule="evenodd" d="M57.7227 0H54.2531V17.1924H57.7227V0ZM8.62936 0.4625C6.75389 0.4625 5.0191 1.06493 3.6125 2.08442L8.58248 7.04287L13.6462 2.03808C12.2396 1.06493 10.5048 0.4625 8.62936 0.4625ZM8.62936 17.5178C6.75389 17.5178 5.0191 16.9154 3.6125 15.8959L8.58248 10.9375L13.6462 15.9423C12.2396 16.9154 10.5048 17.5178 8.62936 17.5178ZM1.64102 4.03125C0.609524 5.42147 0 7.13607 0 8.98968C0 10.8434 0.609524 12.5579 1.59414 13.9482L6.61099 8.98968L1.64102 4.03125ZM17.2078 8.98968C17.2078 7.13607 16.5983 5.42147 15.5668 4.03125L10.5969 8.98968L15.6138 13.9482C16.5983 12.5579 17.2078 10.8434 17.2078 8.98968ZM28.6482 14.3674H27.1009V3.84812H29.0232C32.2584 3.84812 33.8994 5.60906 33.8994 9.03824C33.8994 12.5602 32.1178 14.3674 28.6482 14.3674ZM35.2591 3.06033C33.7118 1.67011 31.602 0.975 28.8357 0.975H23.5375V17.2406H28.3199C31.3206 17.2406 33.5712 16.5454 35.1654 15.1089C36.7595 13.6723 37.5566 11.6334 37.5566 8.9456C37.5566 6.39686 36.7594 4.45055 35.2591 3.06033ZM50.7307 16.3602C50.1212 16.6846 49.5117 16.8699 48.8084 17.009C48.1051 17.1479 47.3081 17.1943 46.3703 17.1943C44.3542 17.1943 42.7601 16.6846 41.6348 15.6187C40.5095 14.5529 39.9469 13.0236 39.9469 11.0774C39.9469 9.08472 40.4626 7.55544 41.4942 6.44326C42.5725 5.33109 44.026 4.775 45.8546 4.775C47.6362 4.775 48.9959 5.28474 49.9806 6.2579C50.9652 7.23106 51.4341 8.62128 51.4341 10.3358V11.9578H43.4634C43.5102 12.8846 43.7916 13.5798 44.3073 14.0894C44.823 14.5992 45.5733 14.831 46.5578 14.831C47.3081 14.831 48.0114 14.7382 48.6678 14.5992C49.3242 14.4602 50.0274 14.2285 50.7307 13.9041V16.3602ZM48.1989 9.54808C48.1989 8.80664 47.9645 8.20424 47.5425 7.78714C47.1205 7.37007 46.5578 7.18471 45.8546 7.13838C45.1513 7.13838 44.6355 7.37007 44.2135 7.78714C43.7916 8.20424 43.5571 8.80664 43.5102 9.54808H48.1989ZM71.5026 16.3602C70.8931 16.6846 70.2836 16.8699 69.5803 17.009C68.9238 17.1479 68.0799 17.1943 67.1422 17.1943C65.1261 17.1943 63.5319 16.6846 62.4066 15.6187C61.2814 14.5529 60.7187 13.0236 60.7187 11.0774C60.7187 9.08472 61.2345 7.55544 62.266 6.44326C63.3444 5.33109 64.751 4.775 66.6265 4.775C68.4081 4.775 69.7678 5.28474 70.7525 6.2579C71.737 7.23106 72.2059 8.62128 72.2059 10.3358V11.9578H64.2352C64.2822 12.8846 64.5634 13.5798 65.0792 14.0894C65.595 14.5992 66.3451 14.831 67.3298 14.831C68.0799 14.831 68.7832 14.7382 69.4396 14.5992C70.0961 14.4602 70.7994 14.2285 71.5026 13.9041V16.3602ZM68.9708 9.54808C68.9708 8.80664 68.7363 8.20424 68.3143 7.78714C67.8924 7.37007 67.3298 7.18471 66.6265 7.13838C65.9231 7.13838 65.4074 7.37007 64.9854 7.78714C64.5634 8.20424 64.329 8.80664 64.2822 9.54808H68.9708ZM79.2794 13.9945C78.9982 13.7627 78.8575 13.4384 78.8575 12.975V7.18238H82.468V4.77266H78.8575V2.13125H76.6538L75.6692 4.77266L73.7469 5.8385V7.18238H75.3879V13.114C75.3879 14.4578 75.7161 15.4774 76.3256 16.1725C76.982 16.8676 77.9666 17.192 79.3733 17.192C80.6392 17.192 81.7176 17.0066 82.5616 16.5895V13.9481C81.7176 14.2262 80.9672 14.3189 80.3576 14.3189C79.9359 14.3652 79.5608 14.2262 79.2794 13.9945ZM95.2248 16.3602C94.6152 16.6846 94.0056 16.8699 93.3024 17.009C92.5992 17.1479 91.8016 17.1943 90.864 17.1943C88.848 17.1943 87.2536 16.6846 86.1288 15.6187C85.0032 14.5529 84.4408 13.0236 84.4408 11.0774C84.4408 9.08472 84.956 7.55544 85.988 6.44326C87.0664 5.33109 88.52 4.775 90.348 4.775C92.1296 4.775 93.4896 5.28474 94.4744 6.2579C95.4592 7.23106 95.928 8.62128 95.928 10.3358V11.9578H87.9568C88.004 12.8846 88.2856 13.5798 88.8008 14.0894C89.3168 14.5992 90.0672 14.831 91.052 14.831C91.8016 14.831 92.5048 14.7382 93.1616 14.5992C93.8176 14.4602 94.5216 14.2285 95.2248 13.9041V16.3602ZM92.6928 9.54808C92.6928 8.80664 92.4584 8.20424 92.036 7.78714C91.6144 7.37007 91.052 7.18471 90.348 7.13838C89.6448 7.13838 89.1296 7.37007 88.7072 7.78714C88.2856 8.20424 88.0512 8.80664 88.004 9.54808H92.6928ZM107.186 17.703L113.329 2.73504H113.422C113.329 3.66185 113.282 4.54232 113.282 5.42279V17.7494H114.454V1.4375H112.719L106.905 15.7567H106.858L101.044 1.4375H99.2624V17.703H100.388V5.51548C100.388 4.54245 100.341 3.61574 100.294 2.68904V2.6887H100.388L106.483 17.703H107.186ZM126.78 10.9834C126.78 9.63952 126.499 8.57368 125.89 7.83221C125.28 7.09075 124.436 6.67369 123.31 6.67369C122.138 6.67369 121.201 7.04442 120.498 7.78586C119.794 8.52728 119.419 9.59312 119.278 10.9834H126.78ZM127.53 16.9613C126.827 17.2857 126.17 17.471 125.608 17.5638C125.046 17.6564 124.389 17.7028 123.733 17.7028C121.951 17.7028 120.591 17.193 119.606 16.1735C118.575 15.1077 118.106 13.6711 118.106 11.8175C118.106 10.0102 118.575 8.52728 119.513 7.41514C120.45 6.30296 121.763 5.74687 123.358 5.74687C124.764 5.74687 125.89 6.21028 126.734 7.18343C127.578 8.11024 127.999 9.45416 127.999 11.0761V11.9566H119.231C119.278 13.5321 119.654 14.6906 120.404 15.5247C121.154 16.3126 122.279 16.7296 123.686 16.7296C124.389 16.7296 124.998 16.6833 125.514 16.5906C126.077 16.4979 126.734 16.2662 127.53 15.9418V16.9613Z" fill="white"/>
</svg>
