<svg width="150" height="150" viewBox="0 0 150 150" fill="none" xmlns="http://www.w3.org/2000/svg">
<path d="M99.7398 72.0668L68.5928 49.4253C67.4497 48.5967 65.9323 48.4719 64.6794 49.1159C63.4166 49.7548 62.6279 51.0526 62.6279 52.4552V97.7232C62.6279 99.1408 63.4166 100.434 64.6794 101.073C65.2135 101.342 65.7975 101.477 66.3865 101.477C67.1552 101.477 67.9339 101.232 68.5928 100.748L99.7398 78.1265C100.723 77.4028 101.297 76.2847 101.297 75.0967C101.302 73.8887 100.713 72.7756 99.7398 72.0668Z" fill="white"/>
<path d="M75.0025 0.00979614C33.5729 0.00979614 0 33.5827 0 75.0123C0 116.427 33.5729 149.99 75.0025 149.99C116.422 149.99 150 116.422 150 75.0123C150.005 33.5827 116.422 0.00979614 75.0025 0.00979614ZM75.0025 137.476C40.5011 137.476 12.5287 109.519 12.5287 75.0123C12.5287 40.5209 40.5011 12.5285 75.0025 12.5285C109.499 12.5285 137.466 40.5159 137.466 75.0123C137.471 109.519 109.499 137.476 75.0025 137.476Z" fill="white"/>
</svg>
